{"title":"The.Terminal.2004.720p.HDTV.x264-ESiR","uid":5679205,"size":4773544010,"categoryP":"video","categoryS":"hd___movies","magnet":"?xt=urn:btih:13e6524141ca16e7be69f8be34bfd72ac1a35a93&amp;dn=The.Terminal.2004.720p.HDTV.x264-ESiR&amp;tr=udp%3A%2F%2Ftracker.openbittorrent.com%3A80&amp;tr=udp%3A%2F%2Fopen.demonii.com%3A1337&amp;tr=udp%3A%2F%2Ftracker.coppersurfer.tk%3A6969&amp;tr=udp%3A%2F%2Fexodus.desync.com%3A6969","seeders":4,"leechers":3,"uploader":"gibresh","files":-1,"time":1278717833,"description":"Title......The Terminal\nYear.......2004\nCast.......Tom Hanks, Catherine Zeta-Jones, Stanley Tucci\nDirector...Steven Spielberg\n\nIMDb.......http://www.imdb.com/title/tt0362227/\n\nlanguage...English\nsubtitles..English, Swedish, Bulgarian, Czech, greek, Polish, Portuguese, Romanian\n           English(for the hearing impaired)\n\ninfo:\nFormat                           : Matroska\nFile size                        : 4.37 GiB\nDuration                         : 2h 3mn\nOverall bit rate                 : 5 064 Kbps\nEncoded date                     : UTC 2006-12-27 02:27:34\nWriting application              : mkvmerge v1.7.0 ('What Do You Take Me For') built on Apr 28 2006 17:20:19\nWriting library                  : libebml v0.7.7 + libmatroska v0.8.0\n\nVideo\nID                               : 1\nFormat                           : AVC\nFormat/Info                      : Advanced Video Codec\nFormat profile                   : &lt;a class=&quot;__cf_email__&quot; href=&quot;/cdn-cgi/l/email-protection&quot; data-cfemail=&quot;5a12333d321a166f746b&quot;&gt;[email&amp;#160;protected]&lt;/a&gt;&lt;script cf-hash='f9e31' type=&quot;text/javascript&quot;&gt;\n/* &lt;![CDATA[ */!function(){try{var t=&quot;currentScript&quot;in document?document.currentScript:function(){for(var t=document.getElementsByTagName(&quot;script&quot;),e=t.length;e--;)if(t[e].getAttribute(&quot;cf-hash&quot;))return t[e]}();if(t&amp;&amp;t.previousSibling){var e,r,n,i,c=t.previousSibling,a=c.getAttribute(&quot;data-cfemail&quot;);if(a){for(e=&quot;&quot;,r=parseInt(a.substr(0,2),16),n=2;a.length-n;n+=2)i=parseInt(a.substr(n,2),16)^r,e+=String.fromCharCode(i);e=document.createTextNode(e),c.parentNode.replaceChild(e,c)}}}catch(u){}}();/* ]]&gt; */&lt;/script&gt;\nFormat settings, CABAC           : Yes\nFormat settings, ReFrames        : 8 frames\nFormat settings, GOP             : M=1, N=2\nMuxing mode                      : Container profile=&lt;a class=&quot;__cf_email__&quot; href=&quot;/cdn-cgi/l/email-protection&quot; data-cfemail=&quot;8bdee5e0e5e4fce5cbbea5ba&quot;&gt;[email&amp;#160;protected]&lt;/a&gt;&lt;script cf-hash='f9e31' type=&quot;text/javascript&quot;&gt;\n/* &lt;![CDATA[ */!function(){try{var t=&quot;currentScript&quot;in document?document.currentScript:function(){for(var t=document.getElementsByTagName(&quot;script&quot;),e=t.length;e--;)if(t[e].getAttribute(&quot;cf-hash&quot;))return t[e]}();if(t&amp;&amp;t.previousSibling){var e,r,n,i,c=t.previousSibling,a=c.getAttribute(&quot;data-cfemail&quot;);if(a){for(e=&quot;&quot;,r=parseInt(a.substr(0,2),16),n=2;a.length-n;n+=2)i=parseInt(a.substr(n,2),16)^r,e+=String.fromCharCode(i);e=document.createTextNode(e),c.parentNode.replaceChild(e,c)}}}catch(u){}}();/* ]]&gt; */&lt;/script&gt;\nCodec ID                         : V_MPEG4/ISO/AVC\nDuration                         : 2h 3mn\nBit rate                         : 4 675 Kbps\nWidth                            : 1 280 pixels\nHeight                           : 704 pixels\nDisplay aspect ratio             : 16:9\nFrame rate                       : 25.000 fps\nColor space                      : YUV\nChroma subsampling               : 4:2:0\nBit depth                        : 8 bits\nScan type                        : Progressive\nBits/(Pixel*Frame)               : 0.208\nStream size                      : 3.95 GiB (90%)\nTitle                            : x264 Videostream\nWriting library                  : x264 core 54 svn-606\nLanguage                         : English\n\nAudio\nID                               : 2\nFormat                           : AC-3\nFormat/Info                      : Audio Coding 3\nMode extension                   : CM (complete main)\nCodec ID                         : A_AC3\nDuration                         : 2h 3mn\nBit rate mode                    : Constant\nBit rate                         : 384 Kbps\nChannel(s)                       : 2 channels\nChannel positions                : Front: L R\nSampling rate                    : 48.0 KHz\nStream size                      : 339 MiB (8%)\nTitle                            : DD 5.1\nLanguage                         : English\n\n","torrent":{"xt":"urn:btih:13e6524141ca16e7be69f8be34bfd72ac1a35a93","amp;dn":"The.Terminal.2004.720p.HDTV.x264-ESiR","amp;tr":["udp%3A%2F%2Ftracker.openbittorrent.com%3A80","udp%3A%2F%2Fopen.demonii.com%3A1337","udp%3A%2F%2Ftracker.coppersurfer.tk%3A6969","udp%3A%2F%2Fexodus.desync.com%3A6969"],"infoHash":"13e6524141ca16e7be69f8be34bfd72ac1a35a93","infoHashBuffer":{"type":"Buffer","data":[19,230,82,65,65,202,22,231,190,105,248,190,52,191,215,42,193,163,90,147]},"announce":[],"urlList":[]}}